# Blender 4.5.8 LTS
# www.blender.org
o grass_blade_mesh
v -0.013111 -0.004554 0.000000
v 0.013111 -0.004554 0.000000
v 0.000000 0.103033 -0.012824
v -0.009927 0.067317 -0.005421
v 0.009927 0.067317 -0.005421
v -0.012437 0.031694 -0.001029
v 0.012437 0.031694 -0.001029
vn -0.0000 0.1582 0.9874
vn -0.0000 0.2030 0.9792
vn -0.0000 0.0741 0.9973
vn -0.0000 0.0284 0.9996
vt 0.031692 0.664358
vt 0.151902 0.664358
vt 0.091797 0.989084
vt 0.016489 0.340477
vt 0.167105 0.340477
vt 0.034733 0.010916
vt 0.148861 0.010916
s 1
f 4/1/1 5/2/1 3/3/2
f 6/4/3 7/5/3 5/2/1 4/1/1
f 1/6/4 2/7/4 7/5/3 6/4/3
